<svg width="74" height="290" viewBox="0 0 74 290" fill="none" xmlns="http://www.w3.org/2000/svg">
<rect x="1" y="1" width="72" height="288" rx="4" fill="#FF4752" fill-opacity="0.1" stroke="url(#paint0_linear_2304_968)"/>
<circle cx="37" cy="37" r="16" fill="#FF4752"/>
<path d="M33.5629 42.1918C32.8299 42.1889 32.1992 42.0085 31.6708 41.6506C31.1452 41.2926 30.7404 40.7741 30.4563 40.0952C30.1751 39.4162 30.0359 38.5994 30.0387 37.6449C30.0387 36.6932 30.1793 35.8821 30.4606 35.2116C30.7447 34.5412 31.1495 34.0312 31.6751 33.6818C32.2035 33.3295 32.8327 33.1534 33.5629 33.1534C34.293 33.1534 34.9208 33.3295 35.4464 33.6818C35.9748 34.0341 36.381 34.5455 36.6651 35.2159C36.9492 35.8835 37.0898 36.6932 37.087 37.6449C37.087 38.6023 36.945 39.4205 36.6609 40.0994C36.3796 40.7784 35.9762 41.2969 35.4506 41.6548C34.9251 42.0128 34.2958 42.1918 33.5629 42.1918ZM33.5629 40.6619C34.0629 40.6619 34.462 40.4105 34.7603 39.9077C35.0586 39.4048 35.2063 38.6506 35.2035 37.6449C35.2035 36.983 35.1353 36.4318 34.9989 35.9915C34.8654 35.5511 34.6751 35.2202 34.4279 34.9986C34.1836 34.777 33.8952 34.6662 33.5629 34.6662C33.0657 34.6662 32.668 34.9148 32.3697 35.4119C32.0714 35.9091 31.9208 36.6534 31.918 37.6449C31.918 38.3153 31.9847 38.875 32.1183 39.3239C32.2546 39.7699 32.4464 40.1051 32.6935 40.3295C32.9407 40.5511 33.2305 40.6619 33.5629 40.6619ZM42.1996 33.2727V42H40.3544V35.0241H40.3033L38.3047 36.277V34.6406L40.4652 33.2727H42.1996Z" fill="white"/>
<defs>
<linearGradient id="paint0_linear_2304_968" x1="37" y1="1" x2="37" y2="386.5" gradientUnits="userSpaceOnUse">
<stop stop-color="#FF4752"/>
<stop offset="1" stop-color="#FF4752" stop-opacity="0"/>
</linearGradient>
</defs>
</svg>
