<svg width="74" height="234" viewBox="0 0 74 234" fill="none" xmlns="http://www.w3.org/2000/svg">
<rect x="1" y="1" width="72" height="232" rx="4" fill="white" fill-opacity="0.1" stroke="url(#paint0_linear_2304_969)"/>
<circle cx="37" cy="37" r="16" fill="white" fill-opacity="0.15"/>
<path d="M33.8672 42.1193C33.2251 42.1193 32.6783 41.9446 32.2266 41.5952C31.7749 41.2429 31.4297 40.733 31.1911 40.0653C30.9524 39.3949 30.8331 38.5852 30.8331 37.6364C30.8331 36.6932 30.9524 35.8878 31.1911 35.2202C31.4325 34.5497 31.7791 34.0384 32.2308 33.6861C32.6854 33.331 33.2308 33.1534 33.8672 33.1534C34.5036 33.1534 35.0476 33.331 35.4993 33.6861C35.9538 34.0384 36.3004 34.5497 36.5391 35.2202C36.7805 35.8878 36.9013 36.6932 36.9013 37.6364C36.9013 38.5852 36.782 39.3949 36.5433 40.0653C36.3047 40.733 35.9595 41.2429 35.5078 41.5952C35.0561 41.9446 34.5092 42.1193 33.8672 42.1193ZM33.8672 41.1818C34.5036 41.1818 34.9979 40.875 35.3501 40.2614C35.7024 39.6477 35.8786 38.7727 35.8786 37.6364C35.8786 36.8807 35.7976 36.2372 35.6357 35.706C35.4766 35.1747 35.2464 34.7699 34.9453 34.4915C34.647 34.2131 34.2876 34.0739 33.8672 34.0739C33.2365 34.0739 32.7436 34.3849 32.3885 35.0071C32.0334 35.6264 31.8558 36.5028 31.8558 37.6364C31.8558 38.392 31.9354 39.0341 32.0945 39.5625C32.2536 40.0909 32.4822 40.4929 32.7805 40.7685C33.0817 41.044 33.4439 41.1818 33.8672 41.1818ZM38.5206 42V41.233L41.4013 38.0795C41.7393 37.7102 42.0178 37.3892 42.2365 37.1165C42.4553 36.8409 42.6172 36.5824 42.7223 36.3409C42.8303 36.0966 42.8842 35.8409 42.8842 35.5739C42.8842 35.267 42.8104 35.0014 42.6626 34.777C42.5178 34.5526 42.3189 34.3793 42.0661 34.2571C41.8132 34.1349 41.5291 34.0739 41.2138 34.0739C40.8786 34.0739 40.5859 34.1435 40.3359 34.2827C40.0888 34.419 39.897 34.6108 39.7607 34.858C39.6271 35.1051 39.5604 35.3949 39.5604 35.7273H38.5547C38.5547 35.2159 38.6726 34.767 38.9084 34.3807C39.1442 33.9943 39.4652 33.6932 39.8714 33.4773C40.2805 33.2614 40.7393 33.1534 41.2479 33.1534C41.7592 33.1534 42.2124 33.2614 42.6072 33.4773C43.0021 33.6932 43.3118 33.9844 43.5362 34.3509C43.7607 34.7173 43.8729 35.125 43.8729 35.5739C43.8729 35.8949 43.8146 36.2088 43.6982 36.5156C43.5845 36.8196 43.3857 37.1591 43.1016 37.5341C42.8203 37.9062 42.4297 38.3608 41.9297 38.8977L39.9695 40.9943V41.0625H44.0263V42H38.5206Z" fill="white"/>
<defs>
<linearGradient id="paint0_linear_2304_969" x1="37" y1="1" x2="37" y2="233" gradientUnits="userSpaceOnUse">
<stop stop-color="white"/>
<stop offset="1" stop-color="white" stop-opacity="0"/>
</linearGradient>
</defs>
</svg>
