<svg width="100" height="39" viewBox="0 0 100 39" fill="none" xmlns="http://www.w3.org/2000/svg">
<path d="M9.50331 21.6981C6.52541 21.6981 4.19705 20.869 2.51823 19.2106C0.839409 17.5523 0 15.1847 0 12.1078V0.359636H4.85658V11.928C4.85658 13.926 5.26629 15.3645 6.08572 16.2436C6.90514 17.1227 8.05433 17.5623 9.53329 17.5623C11.0122 17.5623 12.1614 17.1227 12.9809 16.2436C13.8003 15.3645 14.21 13.926 14.21 11.928V0.359636H19.0066V12.1078C19.0066 15.1847 18.1672 17.5523 16.4884 19.2106C14.8096 20.869 12.4812 21.6981 9.50331 21.6981Z" fill="white"/>
<path d="M30.701 21.6981C29.0222 21.6981 27.4133 21.4783 25.8744 21.0388C24.3354 20.5792 23.0963 19.9898 22.157 19.2706L23.8058 15.6143C24.7052 16.2536 25.7644 16.7831 26.9836 17.2026C28.2227 17.6022 29.4718 17.802 30.7309 17.802C31.6903 17.802 32.4597 17.7121 33.0393 17.5323C33.6389 17.3325 34.0786 17.0628 34.3584 16.7231C34.6382 16.3835 34.7781 15.9939 34.7781 15.5543C34.7781 14.9949 34.5583 14.5553 34.1186 14.2356C33.6789 13.896 33.0993 13.6263 32.3798 13.4265C31.6603 13.2067 30.8609 13.0069 29.9815 12.8271C29.1221 12.6273 28.2527 12.3875 27.3733 12.1078C26.5139 11.8281 25.7245 11.4684 25.005 11.0289C24.2855 10.5893 23.6959 10.0099 23.2362 9.29063C22.7965 8.57135 22.5767 7.65228 22.5767 6.53341C22.5767 5.33462 22.8965 4.24572 23.536 3.2667C24.1955 2.26771 25.1749 1.47851 26.4739 0.899092C27.793 0.299697 29.4419 0 31.4205 0C32.7395 0 34.0386 0.159839 35.3177 0.479516C36.5968 0.779213 37.726 1.23875 38.7053 1.85813L37.2064 5.54441C36.2271 4.98497 35.2478 4.57539 34.2685 4.31565C33.2892 4.03593 32.3298 3.89607 31.3905 3.89607C30.4511 3.89607 29.6817 4.00596 29.0821 4.22574C28.4825 4.44552 28.0528 4.73522 27.793 5.09486C27.5332 5.43452 27.4033 5.83411 27.4033 6.29365C27.4033 6.83311 27.6231 7.27266 28.0628 7.61232C28.5025 7.932 29.0821 8.19174 29.8016 8.39154C30.5211 8.59133 31.3105 8.79113 32.1699 8.99093C33.0493 9.19073 33.9187 9.4205 34.7781 9.68024C35.6575 9.93997 36.4569 10.2896 37.1764 10.7292C37.8959 11.1687 38.4755 11.7482 38.9152 12.4674C39.3749 13.1867 39.6047 14.0958 39.6047 15.1947C39.6047 16.3735 39.2749 17.4524 38.6154 18.4314C37.9559 19.4104 36.9666 20.1996 35.6475 20.799C34.3484 21.3984 32.6996 21.6981 30.701 21.6981Z" fill="white"/>
<path d="M46.9774 21.3385V4.31565H40.2621V0.359636H58.5493V4.31565H51.834V21.3385H46.9774Z" fill="white"/>
<path d="M57.3503 21.3385L66.7038 0.359636H71.5004L80.8838 21.3385H75.7874L68.1128 2.81716H70.0314L62.3268 21.3385H57.3503ZM62.027 16.843L63.3161 13.1567H74.1085L75.4276 16.843H62.027Z" fill="white"/>
<path d="M86.9892 21.3385V12.7671L88.0984 15.7042L78.8649 0.359636H84.0212L91.0963 12.1378H88.1284L95.2334 0.359636H100L90.7665 15.7042L91.8457 12.7671V21.3385H86.9892Z" fill="white"/>
<rect y="29.2453" width="30.1887" height="1.5625" fill="#FF4752"/>
<rect x="69.8113" y="29.2453" width="30.1887" height="1.5625" fill="#FF4752"/>
<rect y="33.0189" width="30.1887" height="1.5625" fill="#FF4752"/>
<rect x="69.8113" y="33.0189" width="30.1887" height="1.5625" fill="#FF4752"/>
<rect y="36.7925" width="30.1887" height="1.5625" fill="#FF4752"/>
<rect x="69.8113" y="36.7925" width="30.1887" height="1.5625" fill="#FF4752"/>
<path d="M38.6793 29.2453L39.7383 32.5047L43.1654 32.5047L40.3928 34.519L41.4518 37.7784L38.6793 35.764L35.9067 37.7784L36.9657 34.519L34.1931 32.5047L37.6202 32.5047L38.6793 29.2453Z" fill="white" fill-opacity="0.7"/>
<path d="M50 29.2453L51.059 32.5047L54.4861 32.5047L51.7135 34.519L52.7726 37.7784L50 35.764L47.2274 37.7784L48.2865 34.519L45.5139 32.5047L48.941 32.5047L50 29.2453Z" fill="white" fill-opacity="0.7"/>
<path d="M61.3207 29.2453L62.3798 32.5047L65.8069 32.5047L63.0343 34.519L64.0933 37.7784L61.3207 35.764L58.5482 37.7784L59.6072 34.519L56.8346 32.5047L60.2617 32.5047L61.3207 29.2453Z" fill="white" fill-opacity="0.7"/>
</svg>
