<svg width="74" height="158" viewBox="0 0 74 158" fill="none" xmlns="http://www.w3.org/2000/svg">
<rect x="1" y="1" width="72" height="156" rx="4" fill="white" fill-opacity="0.1" stroke="url(#paint0_linear_2304_970)"/>
<circle cx="37" cy="37" r="16" fill="white" fill-opacity="0.15"/>
<path d="M33.1797 42.1193C32.5376 42.1193 31.9908 41.9446 31.5391 41.5952C31.0874 41.2429 30.7422 40.733 30.5036 40.0653C30.2649 39.3949 30.1456 38.5852 30.1456 37.6364C30.1456 36.6932 30.2649 35.8878 30.5036 35.2202C30.745 34.5497 31.0916 34.0384 31.5433 33.6861C31.9979 33.331 32.5433 33.1534 33.1797 33.1534C33.8161 33.1534 34.3601 33.331 34.8118 33.6861C35.2663 34.0384 35.6129 34.5497 35.8516 35.2202C36.093 35.8878 36.2138 36.6932 36.2138 37.6364C36.2138 38.5852 36.0945 39.3949 35.8558 40.0653C35.6172 40.733 35.272 41.2429 34.8203 41.5952C34.3686 41.9446 33.8217 42.1193 33.1797 42.1193ZM33.1797 41.1818C33.8161 41.1818 34.3104 40.875 34.6626 40.2614C35.0149 39.6477 35.1911 38.7727 35.1911 37.6364C35.1911 36.8807 35.1101 36.2372 34.9482 35.706C34.7891 35.1747 34.5589 34.7699 34.2578 34.4915C33.9595 34.2131 33.6001 34.0739 33.1797 34.0739C32.549 34.0739 32.0561 34.3849 31.701 35.0071C31.3459 35.6264 31.1683 36.5028 31.1683 37.6364C31.1683 38.392 31.2479 39.0341 31.407 39.5625C31.5661 40.0909 31.7947 40.4929 32.093 40.7685C32.3942 41.044 32.7564 41.1818 33.1797 41.1818ZM40.782 42.1193C40.2195 42.1193 39.718 42.0227 39.2777 41.8295C38.8402 41.6364 38.4922 41.3679 38.2337 41.0241C37.978 40.6776 37.8388 40.2756 37.8161 39.8182H38.8899C38.9126 40.0994 39.0092 40.3423 39.1797 40.5469C39.3501 40.7486 39.5732 40.9048 39.8487 41.0156C40.1243 41.1264 40.4297 41.1818 40.7649 41.1818C41.1399 41.1818 41.4723 41.1165 41.7621 40.9858C42.0518 40.8551 42.2791 40.6733 42.4439 40.4403C42.6087 40.2074 42.6911 39.9375 42.6911 39.6307C42.6911 39.3097 42.6115 39.027 42.4524 38.7827C42.2933 38.5355 42.0604 38.3423 41.7536 38.2031C41.4467 38.0639 41.0717 37.9943 40.6286 37.9943H39.9297V37.0568H40.6286C40.9751 37.0568 41.2791 36.9943 41.5405 36.8693C41.8047 36.7443 42.0107 36.5682 42.1584 36.3409C42.3089 36.1136 42.3842 35.8466 42.3842 35.5398C42.3842 35.2443 42.3189 34.9872 42.1882 34.7685C42.0575 34.5497 41.8729 34.3793 41.6342 34.2571C41.3984 34.1349 41.12 34.0739 40.799 34.0739C40.4979 34.0739 40.2138 34.1293 39.9467 34.2401C39.6825 34.348 39.4666 34.5057 39.299 34.7131C39.1314 34.9176 39.0405 35.1648 39.0263 35.4545H38.0036C38.0206 34.9972 38.1584 34.5966 38.4169 34.2528C38.6754 33.9062 39.0135 33.6364 39.4311 33.4432C39.8516 33.25 40.3132 33.1534 40.8161 33.1534C41.3558 33.1534 41.8189 33.2628 42.2053 33.4815C42.5916 33.6974 42.8885 33.983 43.0959 34.3381C43.3033 34.6932 43.407 35.0767 43.407 35.4886C43.407 35.9801 43.2777 36.3991 43.0192 36.7457C42.7635 37.0923 42.4155 37.3324 41.9751 37.4659V37.5341C42.5263 37.625 42.9567 37.8594 43.2663 38.2372C43.576 38.6122 43.7308 39.0767 43.7308 39.6307C43.7308 40.1051 43.6016 40.5312 43.343 40.9091C43.0874 41.2841 42.7379 41.5795 42.2947 41.7955C41.8516 42.0114 41.3473 42.1193 40.782 42.1193Z" fill="white"/>
<defs>
<linearGradient id="paint0_linear_2304_970" x1="37" y1="1" x2="37" y2="157" gradientUnits="userSpaceOnUse">
<stop stop-color="white"/>
<stop offset="1" stop-color="white" stop-opacity="0"/>
</linearGradient>
</defs>
</svg>
