<svg width="17" height="21" viewBox="0 0 17 21" fill="none" xmlns="http://www.w3.org/2000/svg">
<path d="M8.5 5.00002C12.9183 5.00002 16.5 8.5817 16.5 13C16.5 17.4183 12.9183 21 8.5 21C4.08172 21 0.5 17.4183 0.5 13C0.5 8.5817 4.08172 5.00002 8.5 5.00002ZM8.5 7.00002C5.18629 7.00002 2.5 9.6863 2.5 13C2.5 16.3137 5.18629 19 8.5 19C11.8137 19 14.5 16.3137 14.5 13C14.5 9.6863 11.8137 7.00002 8.5 7.00002ZM8.5 8.5L9.8225 11.1797L12.7798 11.6094L10.6399 13.6953L11.145 16.6406L8.5 15.25L5.85497 16.6406L6.36012 13.6953L4.22025 11.6094L7.1775 11.1797L8.5 8.5ZM14.5 2.34842e-05V3.00002L13.1366 4.13758C12.0305 3.55773 10.8025 3.17887 9.5011 3.04951L9.5 -0.000976562L14.5 2.34842e-05ZM7.5 -0.000976562L7.4997 3.04943C6.1984 3.17866 4.97046 3.55738 3.86441 4.13706L2.5 3.00002V2.34842e-05L7.5 -0.000976562Z" fill="#FF4752"/>
</svg>
